<svg xmlns="http://www.w3.org/2000/svg" xmlns:xlink="http://www.w3.org/1999/xlink" id="Layer_1" x="0px" y="0px" viewBox="0 0 50 50" style="enable-background:new 0 0 50 50;" xml:space="preserve">
<style type="text/css">
	.st0{fill:#AAAAAA;}
	.st1{fill:#FFFFFF;}
</style>
<g>
	<g>
		<path class="st0" d="M2.8,38.4c-0.3,0-0.5-0.2-0.5-0.5V22.6h-1c-0.2,0-0.4-0.2-0.5-0.4c0-0.2,0.1-0.4,0.3-0.5l7.3-3.4    c0.1,0,0.1,0,0.2,0h3.5c0.1,0,0.1,0,0.2,0l3,1.4v-1.6h-1.1c-0.2,0-0.4-0.1-0.5-0.3c-0.1-0.2,0-0.4,0.2-0.5l2.1-1.5v-5    c0-0.3,0.2-0.5,0.5-0.5h2.8c0.3,0,0.5,0.2,0.5,0.5v2.4l1.2-0.8c0.1-0.1,0.2-0.1,0.3-0.1H29c0.1,0,0.2,0,0.3,0.1l1.2,0.8v-2.4    c0-0.3,0.2-0.5,0.5-0.5h2.8c0.3,0,0.5,0.2,0.5,0.5v5l2.1,1.5c0.2,0.1,0.3,0.3,0.2,0.5c-0.1,0.2-0.2,0.3-0.5,0.3H35v1.6l3-1.4    c0.1,0,0.1,0,0.2,0h3.5c0.1,0,0.1,0,0.2,0l7.3,3.4c0.2,0.1,0.3,0.3,0.3,0.5c0,0.2-0.2,0.4-0.5,0.4h-1V38c0,0.3-0.2,0.5-0.5,0.5    H2.8z M35,37.5h12.1v-7.7H35V37.5z M30.8,29.8c1.3,0,2.3,1,2.3,2.3v5.4H34V18.1H16.3v19.4h0.9v-5.4c0-1.3,1-2.3,2.3-2.3    s2.3,1,2.3,2.3v5.4h1v-5.4c0-1.3,1-2.3,2.3-2.3s2.3,1,2.3,2.3v5.4h1v-5.4C28.5,30.8,29.5,29.8,30.8,29.8z M30.8,30.7    c-0.8,0-1.4,0.6-1.4,1.4v5.4h2.8v-5.4C32.2,31.3,31.6,30.7,30.8,30.7z M25.2,30.7c-0.8,0-1.4,0.6-1.4,1.4v5.4h2.8v-5.4    C26.5,31.3,25.9,30.7,25.2,30.7z M19.5,30.7c-0.8,0-1.4,0.6-1.4,1.4v5.4h2.8v-5.4C20.9,31.3,20.3,30.7,19.5,30.7z M3.3,37.5h12.1    v-7.7H3.3V37.5z M35,28.9h12.1v-1.4H35V28.9z M3.3,28.9h12.1v-1.4H3.3V28.9z M44.9,23.9c0.3,0,0.5,0.2,0.5,0.5v2.2h1.7v-4H35v4    h1.4v-2.2c0-0.3,0.2-0.5,0.5-0.5H44.9z M37.3,26.6h7.1v-1.8h-7.1V26.6z M13.3,23.9c0.3,0,0.5,0.2,0.5,0.5v2.2h1.6v-4H3.3v4h1.6    v-2.2c0-0.3,0.2-0.5,0.5-0.5H13.3z M5.8,26.6h7.1v-1.8H5.8V26.6z M35,20.8v0.9h11.9l-5.2-2.4l-3.3,0L35,20.8z M3.5,21.7h11.9v-0.9    l-3.3-1.5l-3.3,0L3.5,21.7z M15.8,17.1h18.7l-5.7-3.8l-7.4,0L15.8,17.1z M31.4,13.9l1.9,1.3v-3.9h-1.9V13.9z M17.1,15.1l1.9-1.3    v-2.6h-1.9V15.1z"></path>
		<path class="st1" d="M33.7,10.4c0.2,0,0.4,0.2,0.4,0.4v4.9v0.1l0.1,0.1l2.1,1.4c0.1,0.1,0.2,0.2,0.1,0.4c0,0.1-0.2,0.2-0.3,0.2h-1    h-0.2v0.2v1.3v0.4l0.4-0.2l2.9-1.3c0,0,0.1,0,0.1,0h3.5c0.1,0,0.1,0,0.1,0l7.3,3.4c0.1,0.1,0.2,0.2,0.2,0.4c0,0.2-0.2,0.3-0.3,0.3    h-0.9h-0.2v0.2V38c0,0.2-0.2,0.4-0.4,0.4H2.8c-0.2,0-0.4-0.2-0.4-0.4V22.7v-0.2H2.2H1.3c-0.2,0-0.3-0.1-0.3-0.3    c0-0.2,0-0.3,0.2-0.4l7.3-3.4c0,0,0.1,0,0.1,0h3.5c0.1,0,0.1,0,0.1,0l2.9,1.3l0.4,0.2v-0.4v-1.3V18h-0.2h-1    c-0.2,0-0.3-0.1-0.3-0.2c0-0.1,0-0.3,0.1-0.4l2.1-1.4l0.1-0.1v-0.1v-4.9c0-0.2,0.2-0.4,0.4-0.4h2.8c0.2,0,0.4,0.2,0.4,0.4V13v0.5    l0.4-0.3l1-0.7c0.1,0,0.1-0.1,0.2-0.1H29c0.1,0,0.1,0,0.2,0.1l1,0.7l0.4,0.3V13v-2.2c0-0.2,0.2-0.4,0.4-0.4H33.7 M33.4,15.4v-0.5    v-3.5v-0.2h-0.2h-1.6h-0.2v0.2v2.4v0.1l0.1,0.1l1.6,1.1L33.4,15.4 M16.9,15.4l0.4-0.3l1.6-1.1l0.1-0.1v-0.1v-2.4v-0.2h-0.2h-1.6    h-0.2v0.2v3.5V15.4 M15.4,17.3h0.8h17.9H35l-0.7-0.5l-5.3-3.6l-0.1,0h-0.1h-7.3h-0.1l-0.1,0l-5.3,3.6L15.4,17.3 M16.2,37.6h0.2H17    h0.2v-0.2v-5.3c0-1.2,1-2.2,2.2-2.2s2.2,1,2.2,2.2v5.3v0.2H22h0.8H23v-0.2v-5.3c0-1.2,1-2.2,2.2-2.2s2.2,1,2.2,2.2v5.3v0.2h0.2    h0.8h0.2v-0.2v-5.3c0-1.2,1-2.2,2.2-2.2s2.2,1,2.2,2.2v5.3v0.2h0.2h0.6h0.2v-0.2V18.2V18h-0.2H16.4h-0.2v0.2v19.2V37.6 M34.8,21.8    h0.2h11.2h1.1l-1-0.5l-4.7-2.2l-0.1,0h-0.1h-3.2h-0.1l-0.1,0L35,20.6l-0.1,0.1v0.2v0.7V21.8 M2.9,21.8H4h11.2h0.2v-0.2v-0.7v-0.2    l-0.1-0.1l-3.2-1.5l-0.1,0H12H8.8H8.7l-0.1,0l-4.7,2.2L2.9,21.8 M34.8,26.7h0.2h1.2h0.2v-0.2v-2.1c0-0.2,0.2-0.4,0.4-0.4h8    c0.2,0,0.4,0.2,0.4,0.4v2.1v0.2h0.2h1.5h0.2v-0.2v-3.7v-0.2h-0.2H35.1h-0.2v0.2v3.7V26.7 M3.2,26.7h0.2h1.3H5v-0.2v-2.1    C5,24.1,5.1,24,5.3,24h8c0.2,0,0.4,0.2,0.4,0.4v2.1v0.2h0.2h1.3h0.2v-0.2v-3.7v-0.2h-0.2H3.4H3.2v0.2v3.7V26.7 M37.2,26.7h0.2h6.8    h0.2v-0.2v-1.5v-0.2h-0.2h-6.8h-0.2v0.2v1.5V26.7 M5.7,26.7h0.2h6.8H13v-0.2v-1.5v-0.2h-0.2H5.9H5.7v0.2v1.5V26.7 M34.8,29h0.2    h11.8h0.2v-0.2v-1.1v-0.2h-0.2H35.1h-0.2v0.2v1.1V29 M3.2,29h0.2h11.8h0.2v-0.2v-1.1v-0.2h-0.2H3.4H3.2v0.2v1.1V29 M34.8,37.6h0.2    h11.8h0.2v-0.2v-7.4v-0.2h-0.2H35.1h-0.2v0.2v7.4V37.6 M3.2,37.6h0.2h11.8h0.2v-0.2v-7.4v-0.2h-0.2H3.4H3.2v0.2v7.4V37.6     M29.3,37.6h0.2h2.5h0.2v-0.2v-5.3c0-0.8-0.7-1.5-1.5-1.5c-0.8,0-1.5,0.7-1.5,1.5v5.3V37.6 M23.7,37.6h0.2h2.5h0.2v-0.2v-5.3    c0-0.8-0.7-1.5-1.5-1.5c-0.8,0-1.5,0.7-1.5,1.5v5.3V37.6 M18,37.6h0.2h2.5H21v-0.2v-5.3c0-0.8-0.7-1.5-1.5-1.5S18,31.3,18,32.1    v5.3V37.6 M33.7,10.2h-2.8c-0.3,0-0.6,0.3-0.6,0.6V13l-1-0.7c-0.1-0.1-0.2-0.1-0.3-0.1h-7.6c-0.1,0-0.2,0-0.3,0.1L20,13v-2.2    c0-0.3-0.3-0.6-0.6-0.6h-2.8c-0.3,0-0.6,0.3-0.6,0.6v4.9l-2.1,1.4c-0.2,0.1-0.3,0.4-0.2,0.7c0.1,0.3,0.3,0.4,0.6,0.4h1v1.3    l-2.9-1.3c-0.1,0-0.2-0.1-0.3-0.1H8.6c-0.1,0-0.2,0-0.3,0.1l-7.3,3.4c-0.3,0.1-0.4,0.4-0.3,0.7c0.1,0.3,0.3,0.5,0.6,0.5h0.9V38    c0,0.3,0.3,0.6,0.6,0.6h44.7c0.3,0,0.6-0.3,0.6-0.6V22.7H49c0.3,0,0.5-0.2,0.6-0.5c0.1-0.3-0.1-0.6-0.3-0.7L42,18.2    c-0.1,0-0.2-0.1-0.3-0.1h-3.5c-0.1,0-0.2,0-0.3,0.1l-2.9,1.3v-1.3h1c0.3,0,0.5-0.2,0.6-0.4c0.1-0.3,0-0.5-0.2-0.7l-2.1-1.4v-4.9    C34.3,10.5,34.1,10.2,33.7,10.2L33.7,10.2z M33.1,14.9l-1.6-1.1v-2.4h1.6V14.9L33.1,14.9z M17.2,14.9v-3.5h1.6v2.4L17.2,14.9    L17.2,14.9z M16.2,17l5.3-3.6h7.3l5.3,3.6H16.2L16.2,17z M16.4,37.4V18.2h17.4v19.2h-0.6v-5.3c0-1.4-1.1-2.5-2.5-2.5    c-1.4,0-2.5,1.1-2.5,2.5v5.3h-0.8v-5.3c0-1.4-1.1-2.5-2.5-2.5s-2.5,1.1-2.5,2.5v5.3H22v-5.3c0-1.4-1.1-2.5-2.5-2.5    c-1.4,0-2.5,1.1-2.5,2.5v5.3H16.4L16.4,37.4z M35.1,21.5v-0.7l3.2-1.5h3.2l4.7,2.2H35.1L35.1,21.5z M4,21.5l4.7-2.2H12l3.2,1.5    v0.7H4L4,21.5z M35.1,26.4v-3.7h11.8v3.7h-1.5v-2.1c0-0.3-0.3-0.6-0.6-0.6h-8c-0.3,0-0.6,0.3-0.6,0.6v2.1H35.1L35.1,26.4z     M3.4,26.4v-3.7h11.8v3.7h-1.3v-2.1c0-0.3-0.3-0.6-0.6-0.6h-8c-0.3,0-0.6,0.3-0.6,0.6v2.1H3.4L3.4,26.4z M37.5,26.4v-1.5h6.8v1.5    H37.5L37.5,26.4z M5.9,26.4v-1.5h6.8v1.5H5.9L5.9,26.4z M35.1,28.7v-1.1h11.8v1.1H35.1L35.1,28.7z M3.4,28.7v-1.1h11.8v1.1H3.4    L3.4,28.7z M35.1,37.4v-7.4h11.8v7.4H35.1L35.1,37.4z M3.4,37.4v-7.4h11.8v7.4H3.4L3.4,37.4z M29.6,37.4v-5.3    c0-0.7,0.6-1.3,1.3-1.3c0.7,0,1.3,0.6,1.3,1.3v5.3H29.6L29.6,37.4z M23.9,37.4v-5.3c0-0.7,0.6-1.3,1.3-1.3c0.7,0,1.3,0.6,1.3,1.3    v5.3H23.9L23.9,37.4z M18.3,37.4v-5.3c0-0.7,0.6-1.3,1.3-1.3c0.7,0,1.3,0.6,1.3,1.3v5.3H18.3L18.3,37.4z"></path>
	</g>
	<g>
		<path class="st0" d="M17.6,26.8c-0.3,0-0.5-0.2-0.5-0.5V22c0-1.3,1-2.3,2.3-2.3s2.3,1,2.3,2.3v4.4c0,0.3-0.2,0.5-0.5,0.5H17.6z     M19.5,20.6c-0.8,0-1.4,0.6-1.4,1.4v3.9h2.8V22C20.9,21.2,20.3,20.6,19.5,20.6z"></path>
		<path class="st1" d="M19.5,19.8c1.2,0,2.2,1,2.2,2.2v4.4c0,0.2-0.2,0.4-0.4,0.4h-3.7c-0.2,0-0.4-0.2-0.4-0.4V22    C17.3,20.8,18.3,19.8,19.5,19.8 M18,26h0.2h2.5H21v-0.2V22c0-0.8-0.7-1.5-1.5-1.5S18,21.1,18,22v3.8V26 M19.5,19.5    c-1.4,0-2.5,1.1-2.5,2.5v4.4c0,0.3,0.3,0.6,0.6,0.6h3.7c0.3,0,0.6-0.3,0.6-0.6V22C22,20.6,20.9,19.5,19.5,19.5L19.5,19.5z     M18.3,25.7V22c0-0.7,0.6-1.3,1.3-1.3s1.3,0.6,1.3,1.3v3.8H18.3L18.3,25.7z"></path>
	</g>
	<g>
		<path class="st0" d="M23.3,26.8c-0.3,0-0.5-0.2-0.5-0.5V22c0-1.3,1-2.3,2.3-2.3s2.3,1,2.3,2.3v4.4c0,0.3-0.2,0.5-0.5,0.5H23.3z     M25.2,20.6c-0.8,0-1.4,0.6-1.4,1.4v3.9h2.8V22C26.5,21.2,25.9,20.6,25.2,20.6z"></path>
		<path class="st1" d="M25.2,19.8c1.2,0,2.2,1,2.2,2.2v4.4c0,0.2-0.2,0.4-0.4,0.4h-3.7c-0.2,0-0.4-0.2-0.4-0.4V22    C23,20.8,24,19.8,25.2,19.8 M23.7,26h0.2h2.5h0.2v-0.2V22c0-0.8-0.7-1.5-1.5-1.5s-1.5,0.7-1.5,1.5v3.8V26 M25.2,19.5    c-1.4,0-2.5,1.1-2.5,2.5v4.4c0,0.3,0.3,0.6,0.6,0.6H27c0.3,0,0.6-0.3,0.6-0.6V22C27.6,20.6,26.5,19.5,25.2,19.5L25.2,19.5z     M23.9,25.7V22c0-0.7,0.6-1.3,1.3-1.3s1.3,0.6,1.3,1.3v3.8H23.9L23.9,25.7z"></path>
	</g>
	<g>
		<path class="st0" d="M29,26.8c-0.3,0-0.5-0.2-0.5-0.5V22c0-1.3,1-2.3,2.3-2.3c1.3,0,2.3,1,2.3,2.3v4.4c0,0.3-0.2,0.5-0.5,0.5H29z     M30.8,20.6c-0.8,0-1.4,0.6-1.4,1.4v3.9h2.8V22C32.2,21.2,31.6,20.6,30.8,20.6z"></path>
		<path class="st1" d="M30.8,19.8c1.2,0,2.2,1,2.2,2.2v4.4c0,0.2-0.2,0.4-0.4,0.4H29c-0.2,0-0.4-0.2-0.4-0.4V22    C28.6,20.8,29.6,19.8,30.8,19.8 M29.3,26h0.2h2.5h0.2v-0.2V22c0-0.8-0.7-1.5-1.5-1.5s-1.5,0.7-1.5,1.5v3.8V26 M30.8,19.5    c-1.4,0-2.5,1.1-2.5,2.5v4.4c0,0.3,0.3,0.6,0.6,0.6h3.7c0.3,0,0.6-0.3,0.6-0.6V22C33.3,20.6,32.2,19.5,30.8,19.5L30.8,19.5z     M29.6,25.7V22c0-0.7,0.6-1.3,1.3-1.3s1.3,0.6,1.3,1.3v3.8H29.6L29.6,25.7z"></path>
	</g>
	<g>
		<path class="st0" d="M10.2,35.7c-0.3,0-0.5-0.2-0.5-0.5v-3.9c0-0.3,0.2-0.5,0.5-0.5h3.9c0.3,0,0.5,0.2,0.5,0.5v3.9    c0,0.3-0.2,0.5-0.5,0.5H10.2z M10.7,34.8h3v-3h-3V34.8z"></path>
		<path class="st1" d="M14.1,31c0.2,0,0.4,0.2,0.4,0.4v3.9c0,0.2-0.2,0.4-0.4,0.4h-3.9c-0.2,0-0.4-0.2-0.4-0.4v-3.9    c0-0.2,0.2-0.4,0.4-0.4H14.1 M10.5,34.9h0.2h2.7h0.2v-0.2V32v-0.2h-0.2h-2.7h-0.2V32v2.7V34.9 M14.1,30.8h-3.9    c-0.3,0-0.6,0.3-0.6,0.6v3.9c0,0.3,0.3,0.6,0.6,0.6h3.9c0.3,0,0.6-0.3,0.6-0.6v-3.9C14.7,31,14.4,30.8,14.1,30.8L14.1,30.8z     M10.8,34.7V32h2.7v2.7H10.8L10.8,34.7z"></path>
	</g>
	<g>
		<path class="st0" d="M4.6,35.7c-0.3,0-0.5-0.2-0.5-0.5v-3.9c0-0.3,0.2-0.5,0.5-0.5h3.9c0.3,0,0.5,0.2,0.5,0.5v3.9    c0,0.3-0.2,0.5-0.5,0.5H4.6z M5,34.8h3v-3H5V34.8z"></path>
		<path class="st1" d="M8.5,31c0.2,0,0.4,0.2,0.4,0.4v3.9c0,0.2-0.2,0.4-0.4,0.4H4.6c-0.2,0-0.4-0.2-0.4-0.4v-3.9    c0-0.2,0.2-0.4,0.4-0.4H8.5 M4.9,34.9h0.2h2.7h0.2v-0.2V32v-0.2H7.9H5.2H4.9V32v2.7V34.9 M8.5,30.8H4.6C4.2,30.8,4,31,4,31.4v3.9    c0,0.3,0.3,0.6,0.6,0.6h3.9c0.3,0,0.6-0.3,0.6-0.6v-3.9C9.1,31,8.8,30.8,8.5,30.8L8.5,30.8z M5.2,34.7V32h2.7v2.7H5.2L5.2,34.7z"></path>
	</g>
	<g>
		<path class="st0" d="M41.7,35.7c-0.3,0-0.5-0.2-0.5-0.5v-3.9c0-0.3,0.2-0.5,0.5-0.5h3.9c0.3,0,0.5,0.2,0.5,0.5v3.9    c0,0.3-0.2,0.5-0.5,0.5H41.7z M42.2,34.8h3v-3h-3V34.8z"></path>
		<path class="st1" d="M45.6,31c0.2,0,0.4,0.2,0.4,0.4v3.9c0,0.2-0.2,0.4-0.4,0.4h-3.9c-0.2,0-0.4-0.2-0.4-0.4v-3.9    c0-0.2,0.2-0.4,0.4-0.4H45.6 M42.1,34.9h0.2H45h0.2v-0.2V32v-0.2H45h-2.7h-0.2V32v2.7V34.9 M45.6,30.8h-3.9    c-0.3,0-0.6,0.3-0.6,0.6v3.9c0,0.3,0.3,0.6,0.6,0.6h3.9c0.3,0,0.6-0.3,0.6-0.6v-3.9C46.2,31,46,30.8,45.6,30.8L45.6,30.8z     M42.3,34.7V32H45v2.7H42.3L42.3,34.7z"></path>
	</g>
	<g>
		<path class="st0" d="M36.1,35.7c-0.3,0-0.5-0.2-0.5-0.5v-3.9c0-0.3,0.2-0.5,0.5-0.5H40c0.3,0,0.5,0.2,0.5,0.5v3.9    c0,0.3-0.2,0.5-0.5,0.5H36.1z M36.6,34.8h3v-3h-3V34.8z"></path>
		<path class="st1" d="M40,31c0.2,0,0.4,0.2,0.4,0.4v3.9c0,0.2-0.2,0.4-0.4,0.4h-3.9c-0.2,0-0.4-0.2-0.4-0.4v-3.9    c0-0.2,0.2-0.4,0.4-0.4H40 M36.5,34.9h0.2h2.7h0.2v-0.2V32v-0.2h-0.2h-2.7h-0.2V32v2.7V34.9 M40,30.8h-3.9c-0.3,0-0.6,0.3-0.6,0.6    v3.9c0,0.3,0.3,0.6,0.6,0.6H40c0.3,0,0.6-0.3,0.6-0.6v-3.9C40.6,31,40.3,30.8,40,30.8L40,30.8z M36.7,34.7V32h2.7v2.7H36.7    L36.7,34.7z"></path>
	</g>
</g>
<g>
</g>
<g>
</g>
<g>
</g>
<g>
</g>
<g>
</g>
</svg>