<?xml version="1.0" encoding="utf-8"?>
<!-- Generator: Adobe Illustrator 16.0.0, SVG Export Plug-In . SVG Version: 6.00 Build 0)  -->
<!DOCTYPE svg PUBLIC "-//W3C//DTD SVG 1.1//EN" "http://www.w3.org/Graphics/SVG/1.1/DTD/svg11.dtd">
<svg version="1.1" id="Layer_1" xmlns="http://www.w3.org/2000/svg" xmlns:xlink="http://www.w3.org/1999/xlink" x="0px" y="0px"
	 width="576.167px" height="360px" viewBox="0.5 1008.5 576.167 360" enable-background="new 0.5 1008.5 576.167 360"
	 xml:space="preserve">
<g id="MH_LOGO_VERTICAL_WHITE_x2F_GREY">
	<g enable-background="new    ">
		<path fill="#FFFFFF" d="M133.782,1307.512c1.066,2.179,2.086,4.311,3.198,6.351h0.093c1.252-2.179,2.411-4.589,3.569-6.953
			l4.358-8.854c2.086-4.218,3.43-6.768,3.523-8.9c1.576,0.14,2.549,0.14,3.477,0.14c1.159,0,2.688-0.047,4.126-0.14
			c0.278,0.186,0.278,0.974,0.046,1.159l-0.973,0.093c-2.92,0.278-3.292,1.159-3.245,4.403c0.093,4.914,0.139,13.49,0.51,20.165
			c0.139,2.318,0.092,3.569,2.271,3.755l1.483,0.14c0.278,0.278,0.232,0.974-0.092,1.158c-1.901-0.093-3.801-0.139-5.47-0.139
			c-1.623,0-3.708,0.046-5.609,0.139c-0.325-0.231-0.371-0.88-0.093-1.158l1.344-0.14c2.271-0.231,2.271-0.974,2.271-3.94
			l-0.139-19.33h-0.093c-0.324,0.51-2.086,4.219-3.013,6.026l-4.125,8.112c-2.086,4.079-4.172,8.437-5.007,10.569
			c-0.092,0.139-0.278,0.186-0.463,0.186c-0.093,0-0.325-0.047-0.417-0.186c-0.788-2.457-3.013-7-4.08-9.271l-4.172-8.946
			c-0.974-2.133-1.947-4.543-2.967-6.676h-0.093c-0.186,2.874-0.325,5.562-0.464,8.252c-0.139,2.827-0.324,6.953-0.324,10.894
			c0,3.43,0.278,4.172,2.086,4.311l1.762,0.14c0.324,0.278,0.278,1.02-0.046,1.158c-1.576-0.093-3.384-0.139-5.146-0.139
			c-1.483,0-3.152,0.046-4.729,0.139c-0.278-0.231-0.371-0.927-0.093-1.158l1.02-0.14c1.947-0.278,2.596-0.556,2.874-3.801
			c0.278-3.06,0.51-5.609,0.788-10.198c0.232-3.848,0.417-7.788,0.51-10.338c0.093-2.92-0.278-3.615-3.106-3.986l-0.742-0.093
			c-0.231-0.278-0.185-0.974,0.186-1.159c1.391,0.093,2.503,0.14,3.662,0.14c1.066,0,2.318,0,3.848-0.14
			c-0.186,1.808,0.974,4.683,2.411,7.649L133.782,1307.512z"/>
		<path fill="#FFFFFF" d="M167.12,1304.916c0-9.271,6.954-16.364,16.503-16.364c10.708,0,16.085,7.741,16.085,15.9
			c0,9.364-7.139,16.178-16.085,16.178C173.332,1320.63,167.12,1313.26,167.12,1304.916z M195.072,1305.889
			c0-7.648-3.384-15.899-12.238-15.899c-4.821,0-11.079,3.291-11.079,13.443c0,6.86,3.337,15.761,12.47,15.761
			C189.788,1319.193,195.072,1315.021,195.072,1305.889z"/>
		<path fill="#FFFFFF" d="M239.674,1312.008c0,1.391,0,6.907,0.139,8.112c-0.093,0.278-0.371,0.51-0.881,0.51
			c-0.556-0.787-1.9-2.41-5.934-6.999l-10.754-12.238c-1.251-1.438-4.404-5.238-5.377-6.258h-0.093
			c-0.185,0.556-0.231,1.622-0.231,3.013v10.105c0,2.179,0.046,8.205,0.834,9.596c0.278,0.511,1.206,0.788,2.364,0.881l1.437,0.14
			c0.278,0.37,0.232,0.927-0.093,1.158c-2.086-0.093-3.708-0.139-5.423-0.139c-1.947,0-3.199,0.046-4.821,0.139
			c-0.324-0.231-0.371-0.88-0.093-1.158l1.252-0.14c1.066-0.139,1.808-0.417,2.04-0.927c0.649-1.669,0.603-7.324,0.603-9.55v-13.396
			c0-1.298-0.046-2.271-1.02-3.338c-0.649-0.648-1.762-0.974-2.875-1.112l-0.788-0.093c-0.278-0.278-0.278-0.974,0.093-1.159
			c1.947,0.14,4.404,0.14,5.238,0.14c0.742,0,1.53-0.047,2.132-0.14c0.927,2.364,6.397,8.483,7.927,10.198l4.497,5.053
			c3.198,3.57,5.47,6.166,7.648,8.391h0.093c0.186-0.231,0.186-0.974,0.186-1.946v-9.921c0-2.179-0.046-8.205-0.927-9.596
			c-0.278-0.417-1.02-0.695-2.874-0.927l-0.788-0.093c-0.324-0.278-0.278-1.02,0.093-1.159c2.132,0.093,3.708,0.14,5.47,0.14
			c1.993,0,3.198-0.047,4.774-0.14c0.371,0.232,0.371,0.881,0.093,1.159l-0.649,0.093c-1.483,0.231-2.411,0.603-2.596,0.974
			c-0.788,1.669-0.695,7.417-0.695,9.549V1312.008z"/>
	</g>
	<g enable-background="new    ">
		<path fill="#FFFFFF" d="M257.992,1296.247c0-4.821-0.093-5.517-2.828-5.841l-0.742-0.093c-0.278-0.186-0.186-1.02,0.093-1.159
			c1.993,0.093,3.569,0.14,5.47,0.14h8.715c2.967,0,5.702,0,6.258-0.14c0.278,0.788,0.556,4.126,0.742,6.166
			c-0.186,0.277-0.927,0.37-1.159,0.093c-0.695-2.18-1.113-3.802-3.523-4.404c-0.973-0.231-2.457-0.278-4.497-0.278h-3.337
			c-1.391,0-1.391,0.093-1.391,1.854v9.271c0,1.298,0.139,1.298,1.53,1.298h2.688c1.947,0,3.384-0.093,3.94-0.278
			s0.881-0.464,1.112-1.622l0.371-1.901c0.232-0.277,1.02-0.277,1.205,0.047c0,1.112-0.186,2.92-0.186,4.682
			c0,1.669,0.186,3.431,0.186,4.45c-0.186,0.324-0.973,0.324-1.205,0.047l-0.417-1.809c-0.185-0.834-0.51-1.529-1.437-1.761
			c-0.649-0.186-1.761-0.232-3.569-0.232h-2.688c-1.391,0-1.53,0.047-1.53,1.252v6.536c0,2.457,0.139,4.033,0.881,4.821
			c0.556,0.556,1.53,1.065,5.609,1.065c3.569,0,4.914-0.185,5.934-0.695c0.834-0.463,2.086-2.086,3.292-4.496
			c0.324-0.231,0.973-0.093,1.159,0.324c-0.324,1.623-1.483,5.192-2.086,6.443c-4.172-0.093-8.298-0.139-12.423-0.139h-4.172
			c-1.993,0-3.569,0.046-6.304,0.139c-0.278-0.139-0.371-0.88-0.093-1.158l1.53-0.14c2.642-0.231,2.874-0.927,2.874-5.794V1296.247z
			"/>
	</g>
	<g enable-background="new    ">
		<path fill="#FFFFFF" d="M299.471,1312.843c0,4.96,0.278,5.701,2.781,5.887l1.762,0.14c0.278,0.278,0.186,1.02-0.093,1.158
			c-2.874-0.093-4.45-0.139-6.305-0.139c-1.947,0-3.616,0.046-6.072,0.139c-0.278-0.139-0.371-0.88-0.093-1.158l1.437-0.14
			c2.688-0.278,2.781-0.927,2.781-5.887v-2.364c0-2.55-0.139-3.152-1.483-5.748l-5.47-10.662c-1.576-3.06-2.271-3.291-3.662-3.523
			l-1.298-0.231c-0.278-0.324-0.231-0.974,0.093-1.159c1.483,0.093,3.152,0.14,5.377,0.14c2.132,0,3.801-0.047,4.96-0.14
			c0.417,0.14,0.417,0.881,0.139,1.159l-0.603,0.093c-1.623,0.231-1.947,0.464-1.947,0.834c0,0.464,1.206,3.106,1.437,3.569
			c1.715,3.431,3.431,7.093,5.238,10.291c1.438-2.456,2.967-5.146,4.358-7.834c1.298-2.41,3.013-5.562,3.013-6.119
			c0-0.277-0.834-0.603-1.947-0.741l-0.834-0.093c-0.324-0.324-0.277-0.974,0.093-1.159c1.669,0.093,3.013,0.14,4.45,0.14
			s2.735-0.047,4.312-0.14c0.37,0.232,0.417,0.881,0.093,1.159l-1.299,0.231c-2.41,0.417-3.801,3.338-6.119,7.324l-2.92,5.053
			c-2.039,3.523-2.179,3.94-2.179,7.51V1312.843z"/>
		<path fill="#FFFFFF" d="M346.483,1304.916c-2.226,0-2.318,0.093-2.318,1.483v6.536c0,4.867,0.232,5.516,2.828,5.794l1.345,0.14
			c0.277,0.186,0.185,1.02-0.093,1.158c-2.504-0.093-4.08-0.139-5.888-0.139c-1.993,0-3.569,0.093-5.377,0.139
			c-0.278-0.139-0.371-0.88-0.093-1.158l0.788-0.14c2.596-0.463,2.688-0.927,2.688-5.794v-16.688c0-4.867-0.324-5.655-2.735-5.841
			l-1.205-0.093c-0.278-0.186-0.186-1.02,0.093-1.159c2.271,0.047,3.848,0.14,5.841,0.14c1.808,0,3.384-0.047,5.378-0.14
			c0.277,0.14,0.37,0.974,0.092,1.159l-0.88,0.093c-2.689,0.278-2.782,0.974-2.782,5.841v5.331c0,1.437,0.093,1.483,2.318,1.483
			h13.258c2.225,0,2.317-0.047,2.317-1.483v-5.331c0-4.867-0.093-5.562-2.827-5.841l-0.881-0.093
			c-0.278-0.186-0.186-1.02,0.093-1.159c2.132,0.093,3.708,0.14,5.609,0.14c1.808,0,3.384-0.047,5.47-0.14
			c0.278,0.14,0.371,0.974,0.093,1.159l-0.974,0.093c-2.688,0.278-2.781,0.974-2.781,5.841v16.688c0,4.867,0.093,5.47,2.781,5.794
			l1.112,0.14c0.278,0.186,0.186,1.02-0.093,1.158c-2.225-0.093-3.801-0.139-5.608-0.139c-1.901,0-3.57,0.046-5.609,0.139
			c-0.278-0.139-0.371-0.88-0.093-1.158l0.881-0.14c2.827-0.463,2.827-0.927,2.827-5.794v-6.536c0-1.391-0.093-1.483-2.317-1.483
			H346.483z"/>
		<path fill="#FFFFFF" d="M383.899,1296.34c0-4.914-0.093-5.702-2.828-5.934l-1.158-0.093c-0.278-0.186-0.186-1.02,0.093-1.159
			c2.317,0.093,3.894,0.14,5.841,0.14c1.854,0,3.43-0.047,5.748-0.14c0.278,0.14,0.371,0.974,0.093,1.159l-1.159,0.093
			c-2.735,0.231-2.828,1.02-2.828,5.934v16.503c0,4.913,0.093,5.562,2.828,5.887l1.159,0.14c0.278,0.186,0.186,1.02-0.093,1.158
			c-2.318-0.093-3.895-0.139-5.748-0.139c-1.947,0-3.523,0.046-5.841,0.139c-0.278-0.139-0.371-0.88-0.093-1.158l1.158-0.14
			c2.735-0.324,2.828-0.974,2.828-5.887V1296.34z"/>
	</g>
	<g enable-background="new    ">
		<path fill="#FFFFFF" d="M408.905,1296.247c0-4.867-0.093-5.609-3.013-5.841l-1.159-0.093c-0.278-0.186-0.186-1.02,0.093-1.159
			c2.596,0.093,4.172,0.14,6.026,0.14c1.808,0,3.384-0.047,5.701-0.14c0.278,0.14,0.371,0.974,0.093,1.159l-1.112,0.093
			c-2.735,0.231-2.828,0.974-2.828,5.841v16.132c0,2.921,0.14,4.126,0.974,5.007c0.51,0.51,1.391,1.065,5.053,1.065
			c3.94,0,4.914-0.185,5.656-0.603c0.927-0.556,2.132-2.225,3.06-4.589c0.277-0.231,1.158-0.046,1.158,0.278
			c0,0.51-1.298,5.238-1.946,6.489c-2.364-0.093-6.769-0.139-11.543-0.139h-4.265c-1.947,0-3.431,0.046-6.026,0.139
			c-0.278-0.139-0.371-0.88-0.093-1.158l1.391-0.14c2.688-0.278,2.781-0.927,2.781-5.794V1296.247z"/>
	</g>
	<g enable-background="new    ">
		<path fill="#FFFFFF" d="M440.587,1296.247c0-4.867-0.093-5.609-3.013-5.841l-1.159-0.093c-0.278-0.186-0.186-1.02,0.093-1.159
			c2.596,0.093,4.172,0.14,6.026,0.14c1.808,0,3.384-0.047,5.701-0.14c0.278,0.14,0.371,0.974,0.093,1.159l-1.112,0.093
			c-2.735,0.231-2.828,0.974-2.828,5.841v16.132c0,2.921,0.14,4.126,0.974,5.007c0.51,0.51,1.391,1.065,5.053,1.065
			c3.94,0,4.914-0.185,5.656-0.603c0.927-0.556,2.132-2.225,3.06-4.589c0.277-0.231,1.158-0.046,1.158,0.278
			c0,0.51-1.298,5.238-1.946,6.489c-2.364-0.093-6.769-0.139-11.543-0.139h-4.265c-1.947,0-3.431,0.046-6.026,0.139
			c-0.278-0.139-0.371-0.88-0.093-1.158l1.391-0.14c2.688-0.278,2.781-0.927,2.781-5.794V1296.247z"/>
	</g>
	<path id="ICON_-_OUTLINES" fill="#FFFFFF" d="M316.63,1230.157V1124.68l37.863,28.514h0.154l-9.427-15.841l-28.591-21.327v-5.873
		l22.718,16.923l-8.423-14.527l-14.295-10.664v-5.872l8.577,7.031l-11.9-20.632l-11.745,20.555l8.423-6.723l-0.077,5.563
		l-7.65,6.104l-23.8-17.772v-5.95l22.718,16.923l-8.422-14.527l-14.295-10.663v-5.873l8.577,7.032l-11.823-20.709l-11.746,20.554
		l8.423-6.723l-0.077,5.564l-13.291,10.586l-6.955-12.055l-11.745,20.555l8.422-6.723l-0.077,5.563l-14.836,11.823l-8.036,13.831
		l23.027-17.618v6.182l-28.513,21.714l-9.505,15.532h0.309l37.632-28.359v108.723c-4.404,2.473-9.118,5.486-14.141,9.118
		c16.691-4.018,43.118-7.031,58.65-0.386c13.909,4.018,30.136,24.959,66.532,14.604
		C342.516,1247.08,332.161,1239.275,316.63,1230.157z M310.062,1109.844v6.182l-0.154,0.154l-2.55-4.25L310.062,1109.844z
		 M296.693,1112.394l-1.545,1.236l-8.037,13.832l14.683-11.282l4.018,3.014l-19.473,14.836l-2.859-4.713l-4.945-3.709v-26.892
		L296.693,1112.394z M278.534,1134.339l3.709,2.782l-0.618,0.463l-3.014,4.945v-8.19H278.534z M261.302,1106.907l10.664,7.882v5.95
		l-14.527-10.896L261.302,1106.907z M254.889,1102.966v-0.85l0.541,0.387L254.889,1102.966z M271.966,1109.226l-2.704-4.714
		l-2.396-1.777l5.1-3.863V1109.226z M271.966,1083.803v6.182l-10.973,8.346l-4.018-3.014l3.632-2.782l2.937,2.396l-1.854-3.168
		L271.966,1083.803z M256.203,1088.979l-1.314,2.241v-3.323L256.203,1088.979z M254.889,1222.121v-105.555l17.077,12.827v87.473
		C266.711,1217.639,261.071,1219.339,254.889,1222.121z M278.534,1216.402v-67.768l9.427-7.109l4.791,3.632h0.155l-3.014-5.101
		l20.168-15.223v101.614c-3.322-1.777-6.955-3.632-10.818-5.409C292.675,1218.18,285.953,1216.325,278.534,1216.402z"/>
</g>
<g id="MH_LOGO_VERTICAL_GREEN_x2F_WHITE">
	<g enable-background="new    ">
		<path fill="#FFFFFF" d="M133.782,1307.512c1.066,2.179,2.086,4.311,3.198,6.351h0.093c1.252-2.179,2.411-4.589,3.569-6.953
			l4.358-8.854c2.086-4.218,3.43-6.768,3.523-8.9c1.576,0.14,2.549,0.14,3.477,0.14c1.159,0,2.688-0.047,4.126-0.14
			c0.278,0.186,0.278,0.974,0.046,1.159l-0.973,0.093c-2.92,0.278-3.292,1.159-3.245,4.403c0.093,4.914,0.139,13.49,0.51,20.165
			c0.139,2.318,0.092,3.569,2.271,3.755l1.483,0.14c0.278,0.278,0.232,0.974-0.092,1.158c-1.901-0.093-3.801-0.139-5.47-0.139
			c-1.623,0-3.708,0.046-5.609,0.139c-0.325-0.231-0.371-0.88-0.093-1.158l1.344-0.14c2.271-0.231,2.271-0.974,2.271-3.94
			l-0.139-19.33h-0.093c-0.324,0.51-2.086,4.219-3.013,6.026l-4.125,8.112c-2.086,4.079-4.172,8.437-5.007,10.569
			c-0.092,0.139-0.278,0.186-0.463,0.186c-0.093,0-0.325-0.047-0.417-0.186c-0.788-2.457-3.013-7-4.08-9.271l-4.172-8.946
			c-0.974-2.133-1.947-4.543-2.967-6.676h-0.093c-0.186,2.874-0.325,5.562-0.464,8.252c-0.139,2.827-0.324,6.953-0.324,10.894
			c0,3.43,0.278,4.172,2.086,4.311l1.762,0.14c0.324,0.278,0.278,1.02-0.046,1.158c-1.576-0.093-3.384-0.139-5.146-0.139
			c-1.483,0-3.152,0.046-4.729,0.139c-0.278-0.231-0.371-0.927-0.093-1.158l1.02-0.14c1.947-0.278,2.596-0.556,2.874-3.801
			c0.278-3.06,0.51-5.609,0.788-10.198c0.232-3.848,0.417-7.788,0.51-10.338c0.093-2.92-0.278-3.615-3.106-3.986l-0.742-0.093
			c-0.231-0.278-0.185-0.974,0.186-1.159c1.391,0.093,2.503,0.14,3.662,0.14c1.066,0,2.318,0,3.848-0.14
			c-0.186,1.808,0.974,4.683,2.411,7.649L133.782,1307.512z"/>
		<path fill="#FFFFFF" d="M167.12,1304.916c0-9.271,6.954-16.364,16.503-16.364c10.708,0,16.085,7.741,16.085,15.9
			c0,9.364-7.139,16.178-16.085,16.178C173.332,1320.63,167.12,1313.26,167.12,1304.916z M195.072,1305.889
			c0-7.648-3.384-15.899-12.238-15.899c-4.821,0-11.079,3.291-11.079,13.443c0,6.86,3.337,15.761,12.47,15.761
			C189.788,1319.193,195.072,1315.021,195.072,1305.889z"/>
		<path fill="#FFFFFF" d="M239.674,1312.008c0,1.391,0,6.907,0.139,8.112c-0.093,0.278-0.371,0.51-0.881,0.51
			c-0.556-0.787-1.9-2.41-5.934-6.999l-10.754-12.238c-1.251-1.438-4.404-5.238-5.377-6.258h-0.093
			c-0.185,0.556-0.231,1.622-0.231,3.013v10.105c0,2.179,0.046,8.205,0.834,9.596c0.278,0.511,1.206,0.788,2.364,0.881l1.437,0.14
			c0.278,0.37,0.232,0.927-0.093,1.158c-2.086-0.093-3.708-0.139-5.423-0.139c-1.947,0-3.199,0.046-4.821,0.139
			c-0.324-0.231-0.371-0.88-0.093-1.158l1.252-0.14c1.066-0.139,1.808-0.417,2.04-0.927c0.649-1.669,0.603-7.324,0.603-9.55v-13.396
			c0-1.298-0.046-2.271-1.02-3.338c-0.649-0.648-1.762-0.974-2.875-1.112l-0.788-0.093c-0.278-0.278-0.278-0.974,0.093-1.159
			c1.947,0.14,4.404,0.14,5.238,0.14c0.742,0,1.53-0.047,2.132-0.14c0.927,2.364,6.397,8.483,7.927,10.198l4.497,5.053
			c3.198,3.57,5.47,6.166,7.648,8.391h0.093c0.186-0.231,0.186-0.974,0.186-1.946v-9.921c0-2.179-0.046-8.205-0.927-9.596
			c-0.278-0.417-1.02-0.695-2.874-0.927l-0.788-0.093c-0.324-0.278-0.278-1.02,0.093-1.159c2.132,0.093,3.708,0.14,5.47,0.14
			c1.993,0,3.198-0.047,4.774-0.14c0.371,0.232,0.371,0.881,0.093,1.159l-0.649,0.093c-1.483,0.231-2.411,0.603-2.596,0.974
			c-0.788,1.669-0.695,7.417-0.695,9.549V1312.008z"/>
	</g>
	<g enable-background="new    ">
		<path fill="#FFFFFF" d="M257.992,1296.247c0-4.821-0.093-5.517-2.828-5.841l-0.742-0.093c-0.278-0.186-0.186-1.02,0.093-1.159
			c1.993,0.093,3.569,0.14,5.47,0.14h8.715c2.967,0,5.702,0,6.258-0.14c0.278,0.788,0.556,4.126,0.742,6.166
			c-0.186,0.277-0.927,0.37-1.159,0.093c-0.695-2.18-1.113-3.802-3.523-4.404c-0.973-0.231-2.457-0.278-4.497-0.278h-3.337
			c-1.391,0-1.391,0.093-1.391,1.854v9.271c0,1.298,0.139,1.298,1.53,1.298h2.688c1.947,0,3.384-0.093,3.94-0.278
			s0.881-0.464,1.112-1.622l0.371-1.901c0.232-0.277,1.02-0.277,1.205,0.047c0,1.112-0.186,2.92-0.186,4.682
			c0,1.669,0.186,3.431,0.186,4.45c-0.186,0.324-0.973,0.324-1.205,0.047l-0.417-1.809c-0.185-0.834-0.51-1.529-1.437-1.761
			c-0.649-0.186-1.761-0.232-3.569-0.232h-2.688c-1.391,0-1.53,0.047-1.53,1.252v6.536c0,2.457,0.139,4.033,0.881,4.821
			c0.556,0.556,1.53,1.065,5.609,1.065c3.569,0,4.914-0.185,5.934-0.695c0.834-0.463,2.086-2.086,3.292-4.496
			c0.324-0.231,0.973-0.093,1.159,0.324c-0.324,1.623-1.483,5.192-2.086,6.443c-4.172-0.093-8.298-0.139-12.423-0.139h-4.172
			c-1.993,0-3.569,0.046-6.304,0.139c-0.278-0.139-0.371-0.88-0.093-1.158l1.53-0.14c2.642-0.231,2.874-0.927,2.874-5.794V1296.247z
			"/>
	</g>
	<g enable-background="new    ">
		<path fill="#FFFFFF" d="M299.471,1312.843c0,4.96,0.278,5.701,2.781,5.887l1.762,0.14c0.278,0.278,0.186,1.02-0.093,1.158
			c-2.874-0.093-4.45-0.139-6.305-0.139c-1.947,0-3.616,0.046-6.072,0.139c-0.278-0.139-0.371-0.88-0.093-1.158l1.437-0.14
			c2.688-0.278,2.781-0.927,2.781-5.887v-2.364c0-2.55-0.139-3.152-1.483-5.748l-5.47-10.662c-1.576-3.06-2.271-3.291-3.662-3.523
			l-1.298-0.231c-0.278-0.324-0.231-0.974,0.093-1.159c1.483,0.093,3.152,0.14,5.377,0.14c2.132,0,3.801-0.047,4.96-0.14
			c0.417,0.14,0.417,0.881,0.139,1.159l-0.603,0.093c-1.623,0.231-1.947,0.464-1.947,0.834c0,0.464,1.206,3.106,1.437,3.569
			c1.715,3.431,3.431,7.093,5.238,10.291c1.438-2.456,2.967-5.146,4.358-7.834c1.298-2.41,3.013-5.562,3.013-6.119
			c0-0.277-0.834-0.603-1.947-0.741l-0.834-0.093c-0.324-0.324-0.277-0.974,0.093-1.159c1.669,0.093,3.013,0.14,4.45,0.14
			s2.735-0.047,4.312-0.14c0.37,0.232,0.417,0.881,0.093,1.159l-1.299,0.231c-2.41,0.417-3.801,3.338-6.119,7.324l-2.92,5.053
			c-2.039,3.523-2.179,3.94-2.179,7.51V1312.843z"/>
		<path fill="#FFFFFF" d="M346.483,1304.916c-2.226,0-2.318,0.093-2.318,1.483v6.536c0,4.867,0.232,5.516,2.828,5.794l1.345,0.14
			c0.277,0.186,0.185,1.02-0.093,1.158c-2.504-0.093-4.08-0.139-5.888-0.139c-1.993,0-3.569,0.093-5.377,0.139
			c-0.278-0.139-0.371-0.88-0.093-1.158l0.788-0.14c2.596-0.463,2.688-0.927,2.688-5.794v-16.688c0-4.867-0.324-5.655-2.735-5.841
			l-1.205-0.093c-0.278-0.186-0.186-1.02,0.093-1.159c2.271,0.047,3.848,0.14,5.841,0.14c1.808,0,3.384-0.047,5.378-0.14
			c0.277,0.14,0.37,0.974,0.092,1.159l-0.88,0.093c-2.689,0.278-2.782,0.974-2.782,5.841v5.331c0,1.437,0.093,1.483,2.318,1.483
			h13.258c2.225,0,2.317-0.047,2.317-1.483v-5.331c0-4.867-0.093-5.562-2.827-5.841l-0.881-0.093
			c-0.278-0.186-0.186-1.02,0.093-1.159c2.132,0.093,3.708,0.14,5.609,0.14c1.808,0,3.384-0.047,5.47-0.14
			c0.278,0.14,0.371,0.974,0.093,1.159l-0.974,0.093c-2.688,0.278-2.781,0.974-2.781,5.841v16.688c0,4.867,0.093,5.47,2.781,5.794
			l1.112,0.14c0.278,0.186,0.186,1.02-0.093,1.158c-2.225-0.093-3.801-0.139-5.608-0.139c-1.901,0-3.57,0.046-5.609,0.139
			c-0.278-0.139-0.371-0.88-0.093-1.158l0.881-0.14c2.827-0.463,2.827-0.927,2.827-5.794v-6.536c0-1.391-0.093-1.483-2.317-1.483
			H346.483z"/>
		<path fill="#FFFFFF" d="M383.899,1296.34c0-4.914-0.093-5.702-2.828-5.934l-1.158-0.093c-0.278-0.186-0.186-1.02,0.093-1.159
			c2.317,0.093,3.894,0.14,5.841,0.14c1.854,0,3.43-0.047,5.748-0.14c0.278,0.14,0.371,0.974,0.093,1.159l-1.159,0.093
			c-2.735,0.231-2.828,1.02-2.828,5.934v16.503c0,4.913,0.093,5.562,2.828,5.887l1.159,0.14c0.278,0.186,0.186,1.02-0.093,1.158
			c-2.318-0.093-3.895-0.139-5.748-0.139c-1.947,0-3.523,0.046-5.841,0.139c-0.278-0.139-0.371-0.88-0.093-1.158l1.158-0.14
			c2.735-0.324,2.828-0.974,2.828-5.887V1296.34z"/>
	</g>
	<g enable-background="new    ">
		<path fill="#FFFFFF" d="M408.905,1296.247c0-4.867-0.093-5.609-3.013-5.841l-1.159-0.093c-0.278-0.186-0.186-1.02,0.093-1.159
			c2.596,0.093,4.172,0.14,6.026,0.14c1.808,0,3.384-0.047,5.701-0.14c0.278,0.14,0.371,0.974,0.093,1.159l-1.112,0.093
			c-2.735,0.231-2.828,0.974-2.828,5.841v16.132c0,2.921,0.14,4.126,0.974,5.007c0.51,0.51,1.391,1.065,5.053,1.065
			c3.94,0,4.914-0.185,5.656-0.603c0.927-0.556,2.132-2.225,3.06-4.589c0.277-0.231,1.158-0.046,1.158,0.278
			c0,0.51-1.298,5.238-1.946,6.489c-2.364-0.093-6.769-0.139-11.543-0.139h-4.265c-1.947,0-3.431,0.046-6.026,0.139
			c-0.278-0.139-0.371-0.88-0.093-1.158l1.391-0.14c2.688-0.278,2.781-0.927,2.781-5.794V1296.247z"/>
	</g>
	<g enable-background="new    ">
		<path fill="#FFFFFF" d="M440.587,1296.247c0-4.867-0.093-5.609-3.013-5.841l-1.159-0.093c-0.278-0.186-0.186-1.02,0.093-1.159
			c2.596,0.093,4.172,0.14,6.026,0.14c1.808,0,3.384-0.047,5.701-0.14c0.278,0.14,0.371,0.974,0.093,1.159l-1.112,0.093
			c-2.735,0.231-2.828,0.974-2.828,5.841v16.132c0,2.921,0.14,4.126,0.974,5.007c0.51,0.51,1.391,1.065,5.053,1.065
			c3.94,0,4.914-0.185,5.656-0.603c0.927-0.556,2.132-2.225,3.06-4.589c0.277-0.231,1.158-0.046,1.158,0.278
			c0,0.51-1.298,5.238-1.946,6.489c-2.364-0.093-6.769-0.139-11.543-0.139h-4.265c-1.947,0-3.431,0.046-6.026,0.139
			c-0.278-0.139-0.371-0.88-0.093-1.158l1.391-0.14c2.688-0.278,2.781-0.927,2.781-5.794V1296.247z"/>
	</g>
	<path id="ICON_-_OUTLINES_1_" fill="#FFFFFF" d="M316.63,1230.157V1124.68l37.863,28.514h0.154l-9.427-15.841l-28.591-21.327
		v-5.873l22.718,16.923l-8.423-14.527l-14.295-10.664v-5.872l8.577,7.031l-11.9-20.632l-11.745,20.555l8.423-6.723l-0.077,5.563
		l-7.65,6.104l-23.8-17.772v-5.95l22.718,16.923l-8.422-14.527l-14.295-10.663v-5.873l8.577,7.032l-11.823-20.709l-11.746,20.554
		l8.423-6.723l-0.077,5.564l-13.291,10.586l-6.955-12.055l-11.745,20.555l8.422-6.723l-0.077,5.563l-14.836,11.823l-8.036,13.831
		l23.027-17.618v6.182l-28.513,21.714l-9.505,15.532h0.309l37.632-28.359v108.723c-4.404,2.473-9.118,5.486-14.141,9.118
		c16.691-4.018,43.118-7.031,58.65-0.386c13.909,4.018,30.136,24.959,66.532,14.604
		C342.516,1247.08,332.161,1239.275,316.63,1230.157z M310.062,1109.844v6.182l-0.154,0.154l-2.55-4.25L310.062,1109.844z
		 M296.693,1112.394l-1.545,1.236l-8.037,13.832l14.683-11.282l4.018,3.014l-19.473,14.836l-2.859-4.713l-4.945-3.709v-26.892
		L296.693,1112.394z M278.534,1134.339l3.709,2.782l-0.618,0.463l-3.014,4.945v-8.19H278.534z M261.302,1106.907l10.664,7.882v5.95
		l-14.527-10.896L261.302,1106.907z M254.889,1102.966v-0.85l0.541,0.387L254.889,1102.966z M271.966,1109.226l-2.704-4.714
		l-2.396-1.777l5.1-3.863V1109.226z M271.966,1083.803v6.182l-10.973,8.346l-4.018-3.014l3.632-2.782l2.937,2.396l-1.854-3.168
		L271.966,1083.803z M256.203,1088.979l-1.314,2.241v-3.323L256.203,1088.979z M254.889,1222.121v-105.555l17.077,12.827v87.473
		C266.711,1217.639,261.071,1219.339,254.889,1222.121z M278.534,1216.402v-67.768l9.427-7.109l4.791,3.632h0.155l-3.014-5.101
		l20.168-15.223v101.614c-3.322-1.777-6.955-3.632-10.818-5.409C292.675,1218.18,285.953,1216.325,278.534,1216.402z"/>
</g>
</svg>
