<?xml version="1.0" encoding="utf-8"?>
<!-- Generator: Adobe Illustrator 24.0.3, SVG Export Plug-In . SVG Version: 6.00 Build 0)  -->
<svg version="1.1" id="Layer_1" xmlns="http://www.w3.org/2000/svg" xmlns:xlink="http://www.w3.org/1999/xlink" x="0px" y="0px"
	 viewBox="0 0 1000 1000" style="enable-background:new 0 0 1000 1000;" xml:space="preserve">
<style type="text/css">
	.st0{fill:#AAAAAA;}
	.st1{fill:none;stroke:#AAAAAA;stroke-width:45;stroke-miterlimit:10;}
</style>
<path id="CURRENT_COMBINED" class="st0" d="M587.4,738.9V363.5L722.1,465h0.4l-33.6-56.2l-101.6-75.9V312l80.8,60.1l-29.9-51.8
	l-50.9-38v-20.9l30.6,24.9L575.6,213l-41.8,73l30.1-23.9l-0.3,19.7l-27.2,21.8l-84.7-63.3v-20.9l80.8,60.1L502.6,228l-50.9-38v-20.9
	l30.6,24.9L440,120.6l-41.8,73l30.1-23.9l-0.3,19.7l-47.2,37.7l-24.8-43l-41.8,73l30.1-23.9l-0.3,19.7l-52.8,42.2l-28.7,49.2
	l81.8-62.7v21.9l-101.4,77.1l-33.7,55.3h1.2l134-100.9v386.8c-15.7,8.8-32.4,19.5-50.2,32.5c59.5-14.3,153.5-25.1,208.8-1.4
	c49.4,14.4,107.3,88.9,236.7,52.1C679.4,799.1,642.6,771.1,587.4,738.9z M564,310.7v21.9l-0.7,0.5l-8.9-15L564,310.7z M516.4,319.8
	l-5.5,4.4l-28.7,49.2l52.2-40.1l14.3,10.8l-69.3,52.7L469.3,380l-17.6-13.1v-95.7L516.4,319.8z M451.7,398l13.1,9.9l-2.3,1.8
	l-10.8,17.7V398z M390.5,300.2l37.9,28.2v21l-51.8-38.7L390.5,300.2z M367.7,286.2v-2.9l2,1.5L367.7,286.2z M428.4,308.5l-9.8-16.9
	l-8.4-6.3l18.1-13.7V308.5z M428.4,218.2v21.9l-39,29.7l-14.3-10.7l12.9-9.9l10.4,8.4l-6.6-11.4L428.4,218.2z M372.5,236.6l-4.7,8.1
	v-11.9L372.5,236.6z M367.7,710.3V334.8l60.6,45.6v311.1C409.7,694.2,389.7,700.2,367.7,710.3z M451.7,689.7V448.6l33.6-25.3
	l17.1,12.9h0.4l-10.8-18l71.8-54.1v361.6c-11.9-6.4-24.6-12.9-38.6-19.4C502.1,696.1,478.1,689.6,451.7,689.7z"/>
<circle class="st1" cx="516.2" cy="492.4" r="411.5"/>
<g>
</g>
<g>
</g>
<g>
</g>
<g>
</g>
<g>
</g>
</svg>
